<svg width="207" height="71" viewBox="0 0 207 71" fill="none" xmlns="http://www.w3.org/2000/svg">
<g clip-path="url(#clip0_24_70)">
<path d="M69.6999 7.10004C69.6999 9.40004 71.5999 11.3 73.8999 11.3C76.1999 11.3 78.0999 9.40004 78.0999 7.10004C78.1999 4.70004 76.2999 2.70004 73.8999 2.70004C73.8999 2.70004 73.8999 2.70004 73.7999 2.70004C71.4999 2.70004 69.5999 4.60004 69.5999 6.90004C69.6999 7.00004 69.6999 7.10004 69.6999 7.10004ZM80.6999 7.20004C80.7999 10.9 77.7999 13.9 74.1999 13.9H74.0999C70.2999 14 67.2999 11 67.1999 7.20004C67.0999 3.40004 70.0999 0.400037 73.8999 0.300037C77.6999 0.200037 80.6999 3.20004 80.7999 7.00004C80.6999 7.00004 80.6999 7.10004 80.6999 7.20004Z" fill="white"/>
<path d="M85.5 5.69998H86.6C87.7 5.69998 88.3 5.29998 88.3 4.39998C88.3 3.49998 87.7 2.99998 86.5 2.99998H85.4L85.5 5.69998ZM83 0.599976H86C87.6 0.599976 88.8 0.799976 89.7 1.59998C90.4 2.29998 90.7 3.29998 90.7 4.29998C90.8 5.89998 89.7 7.29998 88.2 7.69998L91.3 13.4H88.6L85.7 7.89998H85.5V13.4H83V0.599976Z" fill="white"/>
<path d="M95.6 2.99998V11.1H96.9C98 11.2 99.1 10.9 100 10.1C100.7 9.29998 101.1 8.19998 101 7.09998C101 4.39998 99.5 2.89998 96.7 2.89998L95.6 2.99998ZM93.2 0.599976H96.3C98.6 0.599976 100.2 0.899976 101.6 2.19998C102.9 3.49998 103.5 5.29998 103.5 7.19998C103.6 9.19998 102.8 11.1 101.3 12.3C99.8 13.4 98.3 13.5 96.4 13.5H93.2C93.2 13.5 93.2 0.599976 93.2 0.599976Z" fill="white"/>
<path d="M108.2 5.69998H109.3C110.4 5.69998 111 5.29998 111 4.39998C111 3.49998 110.4 2.99998 109.3 2.99998H108.2V5.69998ZM105.7 0.599976H108.7C110.3 0.599976 111.5 0.799976 112.4 1.59998C113.1 2.29998 113.5 3.29998 113.4 4.29998C113.5 5.89998 112.4 7.29998 110.9 7.69998L114 13.4H111.3L108.4 7.89998H108.2V13.4H105.7V0.599976V0.599976Z" fill="white"/>
<path d="M115.8 0.599976H122.9V2.99998H118.3V5.29998H122.9V7.79998H118.3V11.1H122.9V13.6H115.8V0.599976Z" fill="white"/>
<path d="M132.4 2.99998V11.1H133.7C134.8 11.2 135.9 10.9 136.8 10.1C137.5 9.29998 137.8 8.19998 137.7 7.09998C137.7 4.39998 136.2 2.89998 133.4 2.89998L132.4 2.99998ZM129.9 0.599976H133C135.3 0.599976 136.9 0.899976 138.3 2.19998C139.6 3.49998 140.2 5.29998 140.2 7.19998C140.3 9.19998 139.5 11.1 138 12.3C136.5 13.4 135 13.5 133.1 13.5H130V0.599976H129.9Z" fill="white"/>
<path d="M142.4 0.599976H149.4V2.99998H144.8V5.29998H149.4V7.79998H144.8V11.1H149.4V13.6H142.4V0.599976Z" fill="white"/>
<path d="M157.7 0.599976H160.1L163.1 9.69998L166.1 0.599976H168.5L170.7 13.6H168.3L166.9 5.39998L164.1 13.6H162L159.2 5.39998L157.8 13.6H155.4L157.7 0.599976Z" fill="white"/>
<path d="M177.7 3.99998L176 8.49998H179.4L177.7 3.99998ZM176.5 0.599976H179L184 13.5H181.4L180.4 10.8H175.1L174 13.4H171.5L176.5 0.599976Z" fill="white"/>
<path d="M185.6 0.599976H188.1V11.2H191.7V13.6H185.6V0.599976Z" fill="white"/>
<path d="M191.2 0.599976H198.4V2.99998H196V13.6H193.5V2.99998H191.2V0.599976Z" fill="white"/>
<path d="M199.9 0.599976H207V2.99998H202.4V5.29998H207V7.79998H202.4V11.1H207V13.6H199.9V0.599976Z" fill="white"/>
<path d="M67.5 17.2H72.1V19H69.2V20.6H72.1V22.4H69.2V26.6H67.5V17.2Z" fill="white"/>
<path d="M75.5001 20.8999H76.3001C77.1001 20.8999 77.5001 20.5999 77.5001 19.8999C77.5001 19.1999 77.1001 18.9999 76.2001 18.9999H75.4001L75.5001 20.8999ZM73.7001 17.1999H75.9001C76.8001 17.0999 77.8001 17.3999 78.5001 17.8999C79.0001 18.3999 79.3001 19.1999 79.2001 19.8999C79.2001 20.9999 78.5001 22.0999 77.4001 22.3999L79.6001 26.4999H77.7001L75.6001 22.4999H75.4001V26.4999H73.6001L73.7001 17.1999Z" fill="white"/>
<path d="M84.7999 19.7L83.5999 22.9H85.9999L84.7999 19.7ZM83.8999 17.2H85.6999L89.2999 26.5H87.4999L86.7999 24.6H82.9999L82.1999 26.5H80.3999L83.8999 17.2Z" fill="white"/>
<path d="M90.5 17.2H92.2L96.2 23.4V17.2H98V26.6H96.3L92.3 20.4V26.6H90.5V17.2Z" fill="white"/>
<path d="M108.6 25C107.6 26.2 106.1 26.8 104.5 26.8C101.9 27 99.7 25 99.5 22.4C99.5 22.2 99.5 22.1 99.5 21.9C99.5 19.2 101.6 17 104.2 17C104.3 17 104.4 17 104.5 17C106.1 17 107.6 17.7 108.6 18.9L107.3 20.1C106.6 19.3 105.5 18.8 104.4 18.7C102.7 18.7 101.2 20.1 101.2 21.8V21.9C101.1 23.6 102.5 25 104.2 25.1C104.3 25.1 104.4 25.1 104.5 25.1C105.6 25.1 106.6 24.6 107.3 23.7L108.6 25Z" fill="white"/>
<path d="M110.1 17.2H115.2V19H111.8V20.6H115.2V22.4H111.8V24.7999H115.2V26.6H110.1V17.2Z" fill="white"/>
<path d="M62.0001 0H0.100098V34.1C0.100098 40.3 3.2001 48.3 8.6001 55.5C14.0001 62.7 21.6001 68.8 30.8001 71L31.1001 71.1L31.4001 71C40.6001 68.9 48.3001 62.6 53.6001 55.5C58.9001 48.4 62.1001 40.3 62.1001 34.1C62.1001 26.3 62.1001 16.9 62.1001 10.1L62.0001 0ZM59.6001 10.1C59.6001 16.8 59.6001 26.2 59.6001 34.1C59.6001 39.4 56.7001 47.2 51.6001 54C46.5001 60.8 39.4001 66.5 31.0001 68.5C22.7001 66.5 15.5001 60.7 10.5001 54C5.5001 47.3 2.5001 39.5 2.5001 34.1V2.5H59.4001L59.6001 10.1Z" fill="white"/>
<path d="M31 66C46.8 62.4 57.5 44.4 57.5 34.2C57.5 21.8 57.5 4.90002 57.5 4.90002H4.5C4.5 4.90002 4.5 21.6 4.5 34.2C4.5 44.6 15.3 62.4 31 66Z" fill="white"/>
<path d="M39.6 12.4L31 19.5L22.5 12.4L31 33L39.6 12.4Z" fill="#9D0F0A"/>
<path d="M22.5 53.6L31 46.5L39.6 53.6L31 33L22.5 53.6Z" fill="#9D0F0A"/>
<path d="M10.3999 24.5L17.4999 33L10.3999 41.5L30.9999 33L10.3999 24.5Z" fill="#9D0F0A"/>
<path d="M51.7 41.5L44.5 33L51.7 24.5L31 33L51.7 41.5Z" fill="#9D0F0A"/>
</g>
<defs>
<clipPath id="clip0_24_70">
<rect width="207" height="71" fill="white"/>
</clipPath>
</defs>
</svg>
